<?xml version="1.0" encoding="utf-8"?>
<!-- Generator: Adobe Illustrator 16.0.0, SVG Export Plug-In . SVG Version: 6.00 Build 0)  -->
<!DOCTYPE svg PUBLIC "-//W3C//DTD SVG 1.1//EN" "http://www.w3.org/Graphics/SVG/1.1/DTD/svg11.dtd">
<svg version="1.1" id="Capa_1" xmlns="http://www.w3.org/2000/svg" xmlns:xlink="http://www.w3.org/1999/xlink" x="0px" y="0px"
	 width="160px" height="160px" viewBox="0 0 160 160" enable-background="new 0 0 160 160" xml:space="preserve">
<g>
	<line fill="#FFFFFF" x1="86.743" y1="-124.975" x2="68.833" y2="-91.913"/>
	
		<rect x="77.097" y="-127.244" transform="matrix(0.8793 0.4764 -0.4764 0.8793 -42.2647 -50.1485)" fill="#FFFFFF" width="1.383" height="37.601"/>
	<line fill="#FFFFFF" x1="57.841" y1="-108.768" x2="86.007" y2="-125.527"/>
	
		<rect x="71.233" y="-133.535" transform="matrix(0.5108 0.8597 -0.8597 0.5108 -65.5269 -119.1326)" fill="#FFFFFF" width="1.38" height="32.775"/>
	<path fill="#FFFFFF" d="M18.043-58.083C16.655-56.696,14.811-56,12.986-56c-4.681,0-7.119-3.272-7.14-7.021
		c-0.039-3.708,2.381-7.178,7.14-7.178c1.824,0,3.669,0.694,5.057,2.082l-0.733,0.635c-1.189-1.189-2.756-1.765-4.323-1.765
		c-4.046,0-6.128,2.855-6.107,6.187c0.04,3.252,2.103,6.068,6.107,6.068c1.567,0,3.153-0.594,4.343-1.765L18.043-58.083z"/>
	<rect x="19.769" y="-70.041" fill="#FFFFFF" width="0.972" height="13.881"/>
	<path fill="#FFFFFF" d="M30.952-56.159v-1.766C30.2-56.576,28.831-56.021,27.463-56c-2.618,0-4.422-1.607-4.422-4.323v-5.651h0.972
		v5.631c0,2.221,1.367,3.411,3.49,3.392c2.021-0.021,3.43-1.548,3.43-3.57v-5.453h0.972v9.816H30.952z"/>
	<path fill="#FFFFFF" d="M35.019-70.041v6.227c0.794-1.586,2.38-2.3,4.064-2.3c2.737,0,4.919,1.824,4.919,5.057
		c0,3.251-2.161,5.057-4.898,5.057c-1.666,0-3.271-0.833-4.085-2.32v2.162h-0.951v-13.881H35.019z M35.038-61.077
		c0,2.439,1.705,4.125,4.006,4.125c2.201,0,4.006-1.389,4.006-4.105c0-2.756-1.805-4.125-4.006-4.125
		C36.784-65.182,35.038-63.517,35.038-61.077"/>
	<path fill="#FFFFFF" d="M45.43-61.058c0-2.935,2.222-5.057,4.978-5.057c2.757,0,5.215,1.685,4.838,5.513h-8.824
		c0.199,2.299,1.964,3.628,3.986,3.628c1.289,0,2.796-0.516,3.529-1.487l0.695,0.556c-0.952,1.249-2.658,1.883-4.225,1.883
		C47.651-56.021,45.43-57.944,45.43-61.058 M54.373-61.455c-0.02-2.418-1.606-3.768-3.966-3.768c-2.022,0-3.768,1.369-3.986,3.768
		H54.373z"/>
	<path fill="#FFFFFF" d="M64.091-64.171c-0.992-0.872-1.963-1.031-3.054-1.031c-1.527-0.021-2.994,0.555-2.954,1.805
		c0.04,1.309,1.745,1.565,2.975,1.784c1.744,0.298,4.145,0.596,4.044,2.876C65.043-56.576,62.802-56,61.077-56
		c-1.727,0-3.432-0.654-4.283-1.964l0.714-0.635c0.813,1.171,2.28,1.667,3.589,1.667c1.189,0,2.994-0.317,3.054-1.864
		c0.04-1.408-1.587-1.686-3.192-1.944c-1.904-0.317-3.787-0.674-3.808-2.637c-0.02-1.923,1.903-2.756,3.887-2.736
		c1.428,0,2.677,0.397,3.649,1.309L64.091-64.171z"/>
	<path fill="#FFFFFF" d="M77.265-64.67v8.511h-0.583v-1.325c-0.499,0.912-1.483,1.422-2.504,1.422c-1.679,0-3.003-1.106-3.003-3.101
		c0-1.981,1.336-3.1,3.016-3.1c1.033,0,2.006,0.438,2.491,1.41v-3.817H77.265z M71.759-59.163c0,1.666,1.105,2.517,2.454,2.517
		c1.411,0,2.456-1.034,2.456-2.528c0-1.496-1.068-2.517-2.456-2.517C72.864-61.691,71.759-60.853,71.759-59.163"/>
	<path fill="#FFFFFF" d="M78.532-59.163c0-1.799,1.361-3.1,3.052-3.1c1.689,0,3.196,1.034,2.966,3.379h-5.41
		c0.121,1.411,1.203,2.226,2.444,2.226c0.788,0,1.714-0.316,2.163-0.912l0.426,0.34c-0.584,0.766-1.629,1.155-2.589,1.155
		C79.894-56.075,78.532-57.253,78.532-59.163 M84.015-59.406c-0.012-1.483-0.984-2.31-2.431-2.31c-1.241,0-2.311,0.839-2.444,2.31
		H84.015z"/>
	<path fill="#FFFFFF" d="M102.972-58.083C101.583-56.696,99.739-56,97.915-56c-4.68,0-7.119-3.272-7.139-7.021
		c-0.039-3.708,2.379-7.178,7.139-7.178c1.824,0,3.668,0.694,5.057,2.082l-0.734,0.635c-1.188-1.189-2.756-1.765-4.322-1.765
		c-4.045,0-6.127,2.855-6.107,6.187c0.04,3.252,2.104,6.068,6.107,6.068c1.566,0,3.152-0.594,4.343-1.765L102.972-58.083z"/>
	<path fill="#FFFFFF" d="M105.789-69.148c0,1.031-1.567,1.031-1.567,0C104.222-70.18,105.789-70.18,105.789-69.148 M104.499-56.159
		h0.973v-9.835h-0.973V-56.159z"/>
	<path fill="#FFFFFF" d="M107.295-61.058c0-2.935,2.222-5.057,4.978-5.057c2.758,0,5.217,1.685,4.84,5.513h-8.825
		c0.198,2.299,1.964,3.628,3.985,3.628c1.289,0,2.797-0.516,3.529-1.487l0.695,0.556c-0.953,1.249-2.656,1.883-4.225,1.883
		C109.517-56.021,107.295-57.944,107.295-61.058 M116.239-61.455c-0.02-2.418-1.605-3.768-3.967-3.768
		c-2.021,0-3.768,1.369-3.985,3.768H116.239z"/>
	<path fill="#FFFFFF" d="M120.187-65.956v1.745c0.752-1.348,2.121-1.903,3.49-1.923c2.617,0,4.42,1.605,4.42,4.323v5.652h-0.969
		v-5.632c0-2.221-1.369-3.41-3.492-3.391c-2.021,0.02-3.43,1.546-3.43,3.569v5.454h-0.973v-9.797H120.187z"/>
	<path fill="#FFFFFF" d="M138.272-57.528c-0.992,0.991-2.281,1.466-3.57,1.466c-2.756,0-5.037-1.903-5.037-4.996
		c0-3.094,2.201-4.998,5.037-4.998c1.289,0,2.578,0.496,3.57,1.467l-0.635,0.615c-0.793-0.793-1.885-1.17-2.936-1.17
		c-2.221,0-4.084,1.448-4.084,4.085c0,2.638,1.863,4.084,4.084,4.084c1.051,0,2.121-0.417,2.916-1.209L138.272-57.528z"/>
	<path fill="#FFFFFF" d="M141.147-69.148c0,1.031-1.566,1.031-1.566,0C139.581-70.18,141.147-70.18,141.147-69.148 M139.858-56.159
		h0.973v-9.835h-0.973V-56.159z"/>
	<path fill="#FFFFFF" d="M152.63-65.956v9.797h-0.973v-2.083c-0.951,1.527-2.42,2.242-4.006,2.242c-2.736,0-4.977-2.063-4.977-5.057
		s2.24-5.017,4.977-5.017c1.586,0,3.193,0.734,4.006,2.261v-2.142H152.63z M143.646-61.058c0,2.458,1.785,4.105,4.006,4.105
		c5.453,0,5.453-8.19,0-8.19C145.431-65.143,143.646-63.517,143.646-61.058"/>
	<polygon fill="#FFFFFF" points="66.332,-45.806 62.186,-39.462 61.907,-39.462 57.73,-45.806 57.73,-36.183 56.895,-36.183 
		56.895,-47.012 57.886,-47.012 62.032,-40.7 66.132,-47.012 67.151,-47.012 67.151,-36.183 66.332,-36.183 	"/>
	<path fill="#FFFFFF" d="M72.536-36.074c-2.15,0-3.883-1.501-3.883-3.93c0-2.29,1.732-3.946,3.883-3.946s4.068,1.316,3.775,4.302
		h-6.885c0.154,1.794,1.531,2.831,3.109,2.831c1.006,0,2.182-0.402,2.754-1.161l0.541,0.434
		C75.089-36.569,73.758-36.074,72.536-36.074 M69.427-40.314h6.203c-0.015-1.888-1.252-2.938-3.094-2.938
		C70.958-43.252,69.597-42.185,69.427-40.314 M72.753-45.11l1.424-1.902v-0.015H73.17l-1.16,1.856v0.062H72.753z"/>
	<polygon fill="#FFFFFF" points="80.503,-40.7 82.778,-43.825 83.69,-43.825 83.69,-43.794 80.952,-40.144 83.907,-36.214 
		83.907,-36.183 83.01,-36.183 80.503,-39.602 77.997,-36.183 77.101,-36.183 77.101,-36.214 80.055,-40.144 77.317,-43.794 
		77.317,-43.825 78.229,-43.825 	"/>
	<path fill="#FFFFFF" d="M86.026-46.316c0,0.805-1.223,0.805-1.223,0C84.804-47.12,86.026-47.12,86.026-46.316 M85.021-36.183h0.758
		v-7.674h-0.758V-36.183z"/>
	<path fill="#FFFFFF" d="M93.901-37.25c-0.773,0.774-1.779,1.145-2.785,1.145c-2.15,0-3.93-1.485-3.93-3.899s1.717-3.899,3.93-3.899
		c1.006,0,2.012,0.388,2.785,1.145l-0.495,0.48c-0.618-0.62-1.47-0.913-2.29-0.913c-1.732,0-3.187,1.129-3.187,3.187
		c0,2.058,1.454,3.187,3.187,3.187c0.82,0,1.655-0.325,2.275-0.944L93.901-37.25z"/>
	<path fill="#FFFFFF" d="M94.938-39.989c0-2.429,1.731-3.976,3.882-3.976c2.151,0,3.884,1.547,3.884,3.976s-1.732,3.914-3.884,3.914
		C96.67-36.075,94.938-37.56,94.938-39.989 M101.961-39.989c0-1.98-1.407-3.264-3.141-3.264c-1.732,0-3.14,1.283-3.14,3.264
		c0,1.979,1.407,3.172,3.14,3.172C100.554-36.817,101.961-38.009,101.961-39.989"/>
	<line fill="#FFFFFF" x1="71.181" y1="-157.665" x2="86.929" y2="-144.68"/>
	
		<rect x="68.849" y="-151.863" transform="matrix(0.7715 0.6362 -0.6362 0.7715 -78.1113 -84.8279)" fill="#FFFFFF" width="20.411" height="1.382"/>
	<path fill="#FFFFFF" d="M105.882-124.327c0,2.243-1.818,4.063-4.063,4.063c-2.242,0-4.063-1.82-4.063-4.063
		c0-2.245,1.82-4.062,4.063-4.062C104.063-128.389,105.882-126.572,105.882-124.327"/>
	<path fill="#FFFFFF" d="M101.819-119.989c-2.393,0-4.338-1.946-4.338-4.338s1.945-4.338,4.338-4.338s4.338,1.946,4.338,4.338
		S104.212-119.989,101.819-119.989 M101.819-128.113c-2.087,0-3.786,1.699-3.786,3.786c0,2.087,1.699,3.786,3.786,3.786
		c2.088,0,3.785-1.698,3.785-3.786C105.604-126.414,103.907-128.113,101.819-128.113"/>
	<path fill="#FFFFFF" d="M89.999-126.079c0,1.632-1.324,2.955-2.955,2.955c-1.633,0-2.954-1.323-2.954-2.955
		c0-1.63,1.321-2.954,2.954-2.954C88.675-129.033,89.999-127.709,89.999-126.079"/>
	<path fill="#FFFFFF" d="M87.044-122.849c-1.781,0-3.23-1.449-3.23-3.23c0-1.781,1.449-3.23,3.23-3.23s3.23,1.449,3.23,3.23
		C90.274-124.298,88.825-122.849,87.044-122.849 M87.044-128.756c-1.477,0-2.678,1.201-2.678,2.677c0,1.477,1.201,2.678,2.678,2.678
		s2.678-1.201,2.678-2.678C89.722-127.555,88.521-128.756,87.044-128.756"/>
	<path fill="#FFFFFF" d="M89.779-144.678c0,1.631-1.323,2.955-2.954,2.955c-1.633,0-2.954-1.324-2.954-2.955
		c0-1.631,1.321-2.954,2.954-2.954C88.456-147.632,89.779-146.31,89.779-144.678"/>
	<path fill="#FFFFFF" d="M86.825-141.448c-1.781,0-3.23-1.449-3.23-3.229c0-1.781,1.449-3.23,3.23-3.23s3.23,1.449,3.23,3.23
		C90.056-142.896,88.606-141.448,86.825-141.448 M86.825-147.355c-1.477,0-2.678,1.201-2.678,2.678c0,1.476,1.201,2.677,2.678,2.677
		s2.678-1.201,2.678-2.677C89.503-146.154,88.302-147.355,86.825-147.355"/>
	<path fill="#FFFFFF" d="M105.143-146.727c0,2.342-1.9,4.244-4.243,4.244c-2.344,0-4.244-1.901-4.244-4.244
		c0-2.346,1.9-4.244,4.244-4.244C103.242-150.971,105.143-149.073,105.143-146.727"/>
	<path fill="#FFFFFF" d="M100.899-142.208c-2.492,0-4.52-2.027-4.52-4.519c0-2.493,2.027-4.52,4.52-4.52
		c2.49,0,4.52,2.027,4.52,4.52C105.419-144.235,103.39-142.208,100.899-142.208 M100.899-150.694c-2.188,0-3.968,1.78-3.968,3.967
		s1.78,3.967,3.968,3.967s3.967-1.779,3.967-3.967S103.087-150.694,100.899-150.694"/>
	
		<rect x="93.246" y="-150.206" transform="matrix(0.0375 0.9993 -0.9993 0.0375 -55.3075 -234.2332)" fill="#FFFFFF" width="1.381" height="8.759"/>
	
		<rect x="80.587" y="-136.068" transform="matrix(0.0172 0.9999 -0.9999 0.0172 -49.9222 -219.9653)" fill="#FFFFFF" width="12.693" height="1.381"/>
	
		<rect x="89.8" y="-125.538" transform="matrix(0.9926 0.1217 -0.1217 0.9926 -14.4946 -12.3767)" fill="#FFFFFF" width="8.546" height="1.382"/>
	<line fill="#FFFFFF" x1="57.472" y1="-107.294" x2="86.843" y2="-101.964"/>
	
		<rect x="57.232" y="-105.181" transform="matrix(0.9839 0.1786 -0.1786 0.9839 -17.5227 -14.5656)" fill="#FFFFFF" width="29.851" height="1.104"/>
	<path fill="#FFFFFF" d="M56.183-112.093c2.244,0,4.063,1.818,4.063,4.063c0,2.243-1.818,4.061-4.063,4.061
		s-4.063-1.818-4.063-4.061C52.12-110.275,53.938-112.093,56.183-112.093"/>
	<path fill="#FFFFFF" d="M56.183-103.693c-2.393,0-4.338-1.946-4.338-4.337c0-2.393,1.945-4.339,4.338-4.339
		s4.338,1.946,4.338,4.339C60.521-105.639,58.575-103.693,56.183-103.693 M56.183-111.817c-2.087,0-3.786,1.698-3.786,3.787
		c0,2.086,1.699,3.785,3.786,3.785s3.785-1.698,3.785-3.785C59.968-110.119,58.27-111.817,56.183-111.817"/>
	<path fill="#FFFFFF" d="M68.339-94.409c1.631,0,2.954,1.322,2.954,2.954s-1.323,2.955-2.954,2.955
		c-1.633,0-2.955-1.323-2.955-2.955S66.706-94.409,68.339-94.409"/>
	<path fill="#FFFFFF" d="M68.339-88.225c-1.782,0-3.231-1.449-3.231-3.231c0-1.781,1.449-3.23,3.231-3.23
		c1.781,0,3.23,1.449,3.23,3.23C71.569-89.674,70.12-88.225,68.339-88.225 M68.339-94.133c-1.477,0-2.68,1.201-2.68,2.677
		c0,1.477,1.203,2.678,2.68,2.678s2.678-1.201,2.678-2.678C71.017-92.932,69.815-94.133,68.339-94.133"/>
	<path fill="#FFFFFF" d="M103.799-84.178c0,1.631-1.322,2.955-2.954,2.955c-1.631,0-2.955-1.324-2.955-2.955
		c0-1.632,1.324-2.954,2.955-2.954C102.477-87.131,103.799-85.81,103.799-84.178"/>
	<path fill="#FFFFFF" d="M100.845-80.947c-1.781,0-3.23-1.449-3.23-3.231c0-1.781,1.449-3.23,3.23-3.23s3.23,1.449,3.23,3.23
		C104.075-82.396,102.626-80.947,100.845-80.947 M100.845-86.855c-1.477,0-2.678,1.201-2.678,2.677c0,1.477,1.201,2.679,2.678,2.679
		s2.678-1.202,2.678-2.679C103.522-85.654,102.321-86.855,100.845-86.855"/>
	<path fill="#FFFFFF" d="M89.341-101.897c0,1.63-1.324,2.954-2.955,2.954c-1.632,0-2.954-1.323-2.954-2.954
		c0-1.633,1.322-2.955,2.954-2.955C88.017-104.853,89.341-103.531,89.341-101.897"/>
	<path fill="#FFFFFF" d="M86.386-98.668c-1.781,0-3.23-1.449-3.23-3.229c0-1.782,1.449-3.231,3.23-3.231s3.23,1.45,3.23,3.231
		C89.616-100.117,88.167-98.668,86.386-98.668 M86.386-104.576c-1.477,0-2.678,1.201-2.678,2.679c0,1.476,1.201,2.677,2.678,2.677
		s2.678-1.201,2.678-2.677C89.063-103.375,87.862-104.576,86.386-104.576"/>
	<path fill="#FFFFFF" d="M104.335-103.211c0,1.631-1.322,2.954-2.955,2.954c-1.632,0-2.953-1.323-2.953-2.954
		c0-1.633,1.321-2.954,2.953-2.954C103.013-106.165,104.335-104.844,104.335-103.211"/>
	<path fill="#FFFFFF" d="M101.38-99.981c-1.779,0-3.23-1.449-3.23-3.229s1.451-3.23,3.23-3.23c1.781,0,3.23,1.449,3.23,3.23
		S103.161-99.981,101.38-99.981 M101.38-105.888c-1.477,0-2.678,1.201-2.678,2.677s1.201,2.677,2.678,2.677s2.678-1.201,2.678-2.677
		S102.856-105.888,101.38-105.888"/>
	
		<rect x="93.101" y="-107.789" transform="matrix(0.0346 0.9994 -0.9994 0.0346 -12.4427 -193.2128)" fill="#FFFFFF" width="1.381" height="9.483"/>
	
		<rect x="84.803" y="-99.137" transform="matrix(0.9875 0.1577 -0.1577 0.9875 -13.4559 -14.6389)" fill="#FFFFFF" width="1.381" height="14.098"/>
	
		<rect x="91.009" y="-89.503" transform="matrix(0.0735 0.9973 -0.9973 0.0735 1.8759 -168.6408)" fill="#FFFFFF" width="1.382" height="12.384"/>
	<line fill="#FFFFFF" x1="67.786" y1="-153.708" x2="67.786" y2="-94.034"/>
	<rect x="67.095" y="-153.708" fill="#FFFFFF" width="1.381" height="59.674"/>
	<line fill="#FFFFFF" x1="70.239" y1="-153.875" x2="75.521" y2="-130.13"/>
	
		<rect x="60.719" y="-142.694" transform="matrix(0.2171 0.9762 -0.9762 0.2171 -81.5571 -182.3186)" fill="#FFFFFF" width="24.324" height="1.383"/>
	<line fill="#FFFFFF" x1="66.496" y1="-156.655" x2="46.973" y2="-134.37"/>
	
		<rect x="56.044" y="-160.326" transform="matrix(0.7527 0.6584 -0.6584 0.7527 -81.7684 -73.3356)" fill="#FFFFFF" width="1.382" height="29.628"/>
	<path fill="#FFFFFF" d="M75.89-130.506c1.63,0,2.953,1.323,2.953,2.955s-1.323,2.954-2.953,2.954c-1.633,0-2.955-1.322-2.955-2.954
		S74.257-130.506,75.89-130.506"/>
	<path fill="#FFFFFF" d="M75.89-124.321c-1.782,0-3.231-1.45-3.231-3.23c0-1.782,1.449-3.23,3.231-3.23
		c1.779,0,3.229,1.449,3.229,3.23C79.119-125.771,77.669-124.321,75.89-124.321 M75.89-130.23c-1.478,0-2.68,1.201-2.68,2.678
		c0,1.477,1.202,2.677,2.68,2.677c1.477,0,2.678-1.201,2.678-2.677C78.567-129.029,77.366-130.23,75.89-130.23"/>
	<path fill="#FFFFFF" d="M42.922-137.139c3.97,0,7.19,3.218,7.19,7.19c0,3.971-3.221,7.189-7.19,7.189
		c-3.972,0-7.19-3.218-7.19-7.189C35.731-133.921,38.95-137.139,42.922-137.139"/>
	<path fill="#FFFFFF" d="M42.922-122.483c-4.118,0-7.467-3.35-7.467-7.465c0-4.118,3.349-7.467,7.467-7.467
		c4.116,0,7.467,3.349,7.467,7.467C50.389-125.833,47.038-122.483,42.922-122.483 M42.922-136.863c-3.813,0-6.915,3.102-6.915,6.915
		c0,3.811,3.102,6.913,6.915,6.913c3.812,0,6.914-3.102,6.914-6.913C49.836-133.761,46.733-136.863,42.922-136.863"/>
	<path fill="#FFFFFF" d="M68.118-117.927c2.141,0,3.875,1.734,3.875,3.875s-1.734,3.875-3.875,3.875s-3.875-1.734-3.875-3.875
		S65.978-117.927,68.118-117.927"/>
	<path fill="#FFFFFF" d="M68.118-109.902c-2.289,0-4.152-1.862-4.152-4.151c0-2.29,1.863-4.151,4.152-4.151s4.151,1.862,4.151,4.151
		C72.27-111.764,70.407-109.902,68.118-109.902 M68.118-117.651c-1.984,0-3.6,1.614-3.6,3.599c0,1.984,1.615,3.598,3.6,3.598
		s3.6-1.614,3.6-3.598C71.718-116.038,70.103-117.651,68.118-117.651"/>
	<path fill="#FFFFFF" d="M88.544-83.243c0,2.484-2.012,4.497-4.496,4.497c-2.483,0-4.496-2.013-4.496-4.497
		c0-2.482,2.013-4.497,4.496-4.497C86.532-87.74,88.544-85.725,88.544-83.243"/>
	<path fill="#FFFFFF" d="M84.048-78.47c-2.631,0-4.771-2.141-4.771-4.773s2.141-4.773,4.771-4.773c2.632,0,4.773,2.141,4.773,4.773
		S86.68-78.47,84.048-78.47 M84.048-87.464c-2.326,0-4.22,1.894-4.22,4.221c0,2.328,1.894,4.221,4.22,4.221
		c2.327,0,4.221-1.893,4.221-4.221C88.269-85.57,86.375-87.464,84.048-87.464"/>
	<path fill="#FFFFFF" d="M68.213-163.65c2.853,0,5.165,2.313,5.165,5.165c0,2.853-2.313,5.163-5.165,5.163s-5.163-2.311-5.163-5.163
		C63.05-161.337,65.36-163.65,68.213-163.65"/>
	<path fill="#FFFFFF" d="M68.213-153.046c-3,0-5.44-2.44-5.44-5.439s2.44-5.441,5.44-5.441s5.441,2.441,5.441,5.441
		S71.213-153.046,68.213-153.046 M68.213-163.374c-2.694,0-4.888,2.193-4.888,4.888s2.193,4.887,4.888,4.887
		c2.696,0,4.89-2.192,4.89-4.887S70.909-163.374,68.213-163.374"/>
	<path fill="#FFFFFF" d="M67.589-107.437c1.25,0,2.264,1.013,2.264,2.263s-1.014,2.264-2.264,2.264s-2.264-1.014-2.264-2.264
		S66.339-107.437,67.589-107.437"/>
	<path fill="#FFFFFF" d="M67.589-102.634c-1.4,0-2.54-1.139-2.54-2.54s1.14-2.54,2.54-2.54s2.54,1.139,2.54,2.54
		S68.989-102.634,67.589-102.634 M67.589-107.161c-1.096,0-1.987,0.891-1.987,1.987c0,1.096,0.892,1.987,1.987,1.987
		s1.987-0.891,1.987-1.987C69.576-106.27,68.685-107.161,67.589-107.161"/>
	<path fill="#FFFFFF" d="M76.344-106.23c1.288,0,2.333,1.044,2.333,2.333c0,1.289-1.045,2.332-2.333,2.332s-2.332-1.043-2.332-2.332
		C74.012-105.186,75.056-106.23,76.344-106.23"/>
	<path fill="#FFFFFF" d="M76.344-101.29c-1.438,0-2.608-1.17-2.608-2.608c0-1.439,1.17-2.609,2.608-2.609
		c1.439,0,2.609,1.17,2.609,2.609C78.953-102.46,77.783-101.29,76.344-101.29 M76.344-105.954c-1.134,0-2.056,0.921-2.056,2.056
		c0,1.133,0.922,2.056,2.056,2.056s2.057-0.923,2.057-2.056C78.4-105.033,77.478-105.954,76.344-105.954"/>
	<rect x="6.073" y="-51.684" fill="#FFFFFF" width="148.08" height="0.553"/>
</g>
<g>
	<line fill="#262424" x1="266.743" y1="-124.975" x2="248.833" y2="-91.913"/>
	
		<rect x="257.097" y="-127.244" transform="matrix(0.8794 0.4761 -0.4761 0.8794 -20.5393 -135.8053)" fill="#262424" width="1.383" height="37.601"/>
	<line fill="#262424" x1="237.841" y1="-108.768" x2="266.007" y2="-125.527"/>
	
		<rect x="251.233" y="-133.534" transform="matrix(0.5108 0.8597 -0.8597 0.5108 22.5205 -273.8731)" fill="#262424" width="1.38" height="32.775"/>
	<path fill="#262424" d="M198.043-58.083c-1.388,1.388-3.232,2.083-5.057,2.083c-4.681,0-7.119-3.272-7.14-7.021
		c-0.039-3.708,2.381-7.179,7.14-7.179c1.824,0,3.669,0.694,5.057,2.082l-0.733,0.635c-1.189-1.189-2.756-1.765-4.323-1.765
		c-4.046,0-6.128,2.855-6.107,6.187c0.04,3.253,2.103,6.068,6.107,6.068c1.567,0,3.153-0.594,4.343-1.766L198.043-58.083z"/>
	<rect x="199.769" y="-70.041" fill="#262424" width="0.972" height="13.882"/>
	<path fill="#262424" d="M210.952-56.159v-1.766c-0.752,1.348-2.121,1.902-3.489,1.924c-2.618,0-4.422-1.607-4.422-4.323v-5.651
		h0.972v5.631c0,2.221,1.367,3.411,3.49,3.393c2.021-0.021,3.43-1.549,3.43-3.57v-5.453h0.972v9.816H210.952z"/>
	<path fill="#262424" d="M215.019-70.041v6.227c0.794-1.587,2.38-2.3,4.064-2.3c2.737,0,4.919,1.824,4.919,5.057
		c0,3.251-2.161,5.057-4.898,5.057c-1.666,0-3.271-0.834-4.085-2.32v2.162h-0.951v-13.882H215.019z M215.038-61.077
		c0,2.438,1.705,4.125,4.006,4.125c2.201,0,4.006-1.39,4.006-4.105c0-2.757-1.805-4.125-4.006-4.125
		C216.784-65.182,215.038-63.517,215.038-61.077"/>
	<path fill="#262424" d="M225.43-61.057c0-2.936,2.222-5.057,4.978-5.057c2.757,0,5.215,1.685,4.838,5.513h-8.824
		c0.199,2.3,1.964,3.628,3.986,3.628c1.289,0,2.796-0.516,3.529-1.486l0.695,0.555c-0.952,1.249-2.658,1.883-4.225,1.883
		C227.651-56.022,225.43-57.944,225.43-61.057 M234.373-61.455c-0.02-2.419-1.606-3.768-3.966-3.768
		c-2.022,0-3.768,1.368-3.986,3.768H234.373z"/>
	<path fill="#262424" d="M244.091-64.17c-0.992-0.873-1.963-1.031-3.054-1.031c-1.527-0.021-2.994,0.555-2.954,1.805
		c0.04,1.309,1.745,1.565,2.975,1.783c1.744,0.299,4.145,0.596,4.044,2.877c-0.059,2.16-2.3,2.736-4.024,2.736
		c-1.727,0-3.432-0.654-4.283-1.965l0.714-0.635c0.813,1.172,2.28,1.667,3.589,1.667c1.189,0,2.994-0.317,3.054-1.864
		c0.04-1.408-1.587-1.686-3.192-1.943c-1.904-0.316-3.787-0.674-3.808-2.637c-0.02-1.924,1.903-2.756,3.887-2.736
		c1.428,0,2.677,0.396,3.649,1.309L244.091-64.17z"/>
	<path fill="#262424" d="M257.265-64.67v8.512h-0.583v-1.326c-0.499,0.912-1.483,1.423-2.504,1.423
		c-1.679,0-3.003-1.106-3.003-3.101c0-1.98,1.336-3.1,3.016-3.1c1.033,0,2.006,0.438,2.491,1.41v-3.818H257.265z M251.759-59.163
		c0,1.666,1.105,2.517,2.454,2.517c1.411,0,2.456-1.034,2.456-2.528c0-1.496-1.068-2.517-2.456-2.517
		C252.864-61.691,251.759-60.852,251.759-59.163"/>
	<path fill="#262424" d="M258.532-59.163c0-1.799,1.361-3.1,3.052-3.1c1.689,0,3.196,1.033,2.966,3.379h-5.41
		c0.121,1.41,1.203,2.226,2.444,2.226c0.788,0,1.714-0.316,2.163-0.912l0.426,0.34c-0.584,0.767-1.629,1.155-2.589,1.155
		C259.894-56.075,258.532-57.253,258.532-59.163 M264.015-59.406c-0.012-1.483-0.984-2.31-2.431-2.31
		c-1.241,0-2.311,0.839-2.444,2.31H264.015z"/>
	<path fill="#262424" d="M282.972-58.083c-1.389,1.388-3.232,2.083-5.057,2.083c-4.68,0-7.119-3.272-7.139-7.021
		c-0.039-3.708,2.379-7.179,7.139-7.179c1.824,0,3.668,0.694,5.057,2.082l-0.734,0.635c-1.188-1.189-2.756-1.765-4.322-1.765
		c-4.045,0-6.127,2.855-6.107,6.187c0.04,3.253,2.104,6.068,6.107,6.068c1.566,0,3.152-0.594,4.343-1.766L282.972-58.083z"/>
	<path fill="#262424" d="M285.789-69.149c0,1.031-1.567,1.031-1.567,0S285.789-70.18,285.789-69.149 M284.499-56.159h0.973v-9.836
		h-0.973V-56.159z"/>
	<path fill="#262424" d="M287.295-61.057c0-2.936,2.222-5.057,4.978-5.057c2.758,0,5.217,1.685,4.84,5.513h-8.825
		c0.198,2.3,1.964,3.628,3.985,3.628c1.289,0,2.797-0.516,3.529-1.486l0.695,0.555c-0.953,1.249-2.656,1.883-4.225,1.883
		C289.517-56.022,287.295-57.944,287.295-61.057 M296.239-61.455c-0.02-2.419-1.605-3.768-3.967-3.768
		c-2.021,0-3.768,1.368-3.985,3.768H296.239z"/>
	<path fill="#262424" d="M300.187-65.956v1.744c0.752-1.348,2.121-1.902,3.49-1.922c2.617,0,4.42,1.605,4.42,4.322v5.652h-0.969
		v-5.633c0-2.221-1.369-3.41-3.492-3.391c-2.021,0.02-3.43,1.547-3.43,3.568v5.455h-0.973v-9.797H300.187z"/>
	<path fill="#262424" d="M318.272-57.528c-0.992,0.99-2.281,1.467-3.57,1.467c-2.756,0-5.037-1.904-5.037-4.996
		c0-3.094,2.201-4.998,5.037-4.998c1.289,0,2.578,0.496,3.57,1.467l-0.635,0.615c-0.793-0.793-1.885-1.17-2.936-1.17
		c-2.221,0-4.084,1.448-4.084,4.086c0,2.637,1.863,4.084,4.084,4.084c1.051,0,2.121-0.416,2.916-1.209L318.272-57.528z"/>
	<path fill="#262424" d="M321.147-69.149c0,1.031-1.566,1.031-1.566,0S321.147-70.18,321.147-69.149 M319.858-56.159h0.973v-9.836
		h-0.973V-56.159z"/>
	<path fill="#262424" d="M332.63-65.956v9.797h-0.973v-2.084c-0.951,1.527-2.42,2.242-4.006,2.242c-2.736,0-4.977-2.063-4.977-5.057
		c0-2.995,2.24-5.018,4.977-5.018c1.586,0,3.193,0.734,4.006,2.261v-2.142H332.63z M323.646-61.057c0,2.457,1.785,4.105,4.006,4.105
		c5.453,0,5.453-8.191,0-8.191C325.431-65.143,323.646-63.517,323.646-61.057"/>
	<polygon fill="#262424" points="246.332,-45.805 242.186,-39.462 241.907,-39.462 237.73,-45.805 237.73,-36.182 236.895,-36.182 
		236.895,-47.012 237.886,-47.012 242.032,-40.7 246.132,-47.012 247.151,-47.012 247.151,-36.182 246.332,-36.182 	"/>
	<path fill="#262424" d="M252.536-36.074c-2.15,0-3.883-1.501-3.883-3.931c0-2.289,1.732-3.945,3.883-3.945s4.068,1.316,3.775,4.302
		h-6.885c0.154,1.794,1.531,2.831,3.109,2.831c1.006,0,2.182-0.402,2.754-1.16l0.541,0.434
		C255.089-36.569,253.758-36.074,252.536-36.074 M249.427-40.314h6.203c-0.015-1.888-1.252-2.938-3.094-2.938
		C250.958-43.252,249.597-42.185,249.427-40.314 M252.753-45.11l1.424-1.902v-0.016h-1.007l-1.16,1.856v0.062H252.753z"/>
	<polygon fill="#262424" points="260.503,-40.7 262.778,-43.825 263.69,-43.825 263.69,-43.794 260.952,-40.143 263.907,-36.214 
		263.907,-36.182 263.01,-36.182 260.503,-39.602 257.997,-36.182 257.101,-36.182 257.101,-36.214 260.055,-40.143 
		257.317,-43.794 257.317,-43.825 258.229,-43.825 	"/>
	<path fill="#262424" d="M266.026-46.317c0,0.806-1.223,0.806-1.223,0C264.804-47.12,266.026-47.12,266.026-46.317 M265.021-36.182
		h0.758v-7.674h-0.758V-36.182z"/>
	<path fill="#262424" d="M273.901-37.25c-0.773,0.774-1.779,1.146-2.785,1.146c-2.15,0-3.93-1.485-3.93-3.899
		c0-2.413,1.717-3.898,3.93-3.898c1.006,0,2.012,0.387,2.785,1.145l-0.495,0.48c-0.618-0.619-1.47-0.913-2.29-0.913
		c-1.732,0-3.187,1.129-3.187,3.187c0,2.059,1.454,3.188,3.187,3.188c0.82,0,1.655-0.325,2.275-0.943L273.901-37.25z"/>
	<path fill="#262424" d="M274.938-39.989c0-2.429,1.731-3.976,3.882-3.976c2.151,0,3.884,1.547,3.884,3.976
		s-1.732,3.914-3.884,3.914C276.67-36.075,274.938-37.56,274.938-39.989 M281.961-39.989c0-1.98-1.407-3.264-3.141-3.264
		c-1.732,0-3.14,1.283-3.14,3.264c0,1.979,1.407,3.172,3.14,3.172C280.554-36.817,281.961-38.009,281.961-39.989"/>
	<line fill="#262424" x1="251.181" y1="-157.665" x2="266.929" y2="-144.68"/>
	
		<rect x="248.849" y="-151.863" transform="matrix(0.7716 0.6362 -0.6362 0.7716 -36.9908 -199.3332)" fill="#262424" width="20.411" height="1.382"/>
	<path fill="#262424" d="M285.882-124.327c0,2.242-1.818,4.063-4.063,4.063c-2.242,0-4.063-1.82-4.063-4.063
		c0-2.245,1.82-4.063,4.063-4.063C284.063-128.389,285.882-126.572,285.882-124.327"/>
	<path fill="#262424" d="M281.819-119.989c-2.393,0-4.338-1.946-4.338-4.338c0-2.393,1.945-4.338,4.338-4.338
		s4.338,1.945,4.338,4.338C286.157-121.935,284.212-119.989,281.819-119.989 M281.819-128.113c-2.087,0-3.786,1.698-3.786,3.786
		c0,2.087,1.699,3.785,3.786,3.785c2.088,0,3.785-1.698,3.785-3.785C285.604-126.415,283.907-128.113,281.819-128.113"/>
	<path fill="#262424" d="M269.999-126.079c0,1.632-1.324,2.955-2.955,2.955c-1.633,0-2.954-1.323-2.954-2.955
		c0-1.631,1.321-2.954,2.954-2.954C268.675-129.033,269.999-127.709,269.999-126.079"/>
	<path fill="#262424" d="M267.044-122.848c-1.781,0-3.23-1.449-3.23-3.23s1.449-3.23,3.23-3.23s3.23,1.449,3.23,3.23
		S268.825-122.848,267.044-122.848 M267.044-128.756c-1.477,0-2.678,1.201-2.678,2.678s1.201,2.678,2.678,2.678
		s2.678-1.201,2.678-2.678S268.521-128.756,267.044-128.756"/>
	<path fill="#262424" d="M269.779-144.678c0,1.631-1.323,2.955-2.954,2.955c-1.633,0-2.954-1.324-2.954-2.955
		s1.321-2.954,2.954-2.954C268.456-147.632,269.779-146.309,269.779-144.678"/>
	<path fill="#262424" d="M266.825-141.448c-1.781,0-3.23-1.449-3.23-3.229c0-1.781,1.449-3.23,3.23-3.23s3.23,1.449,3.23,3.23
		C270.056-142.897,268.606-141.448,266.825-141.448 M266.825-147.356c-1.477,0-2.678,1.201-2.678,2.679
		c0,1.476,1.201,2.677,2.678,2.677s2.678-1.201,2.678-2.677C269.503-146.155,268.302-147.356,266.825-147.356"/>
	<path fill="#262424" d="M285.143-146.727c0,2.342-1.9,4.244-4.243,4.244c-2.344,0-4.244-1.902-4.244-4.244
		c0-2.346,1.9-4.244,4.244-4.244C283.242-150.971,285.143-149.073,285.143-146.727"/>
	<path fill="#262424" d="M280.899-142.208c-2.492,0-4.52-2.027-4.52-4.52s2.027-4.52,4.52-4.52c2.49,0,4.52,2.027,4.52,4.52
		S283.39-142.208,280.899-142.208 M280.899-150.694c-2.188,0-3.968,1.779-3.968,3.967s1.78,3.967,3.968,3.967
		s3.967-1.779,3.967-3.967S283.087-150.694,280.899-150.694"/>
	
		<rect x="273.246" y="-150.206" transform="matrix(0.0375 0.9993 -0.9993 0.0375 117.9445 -414.1047)" fill="#262424" width="1.381" height="8.759"/>
	
		<rect x="260.587" y="-136.068" transform="matrix(0.0172 0.9999 -0.9999 0.0172 126.976 -399.9384)" fill="#262424" width="12.693" height="1.381"/>
	
		<rect x="269.8" y="-125.538" transform="matrix(0.9926 0.1218 -0.1218 0.9926 -13.1669 -34.3152)" fill="#262424" width="8.546" height="1.382"/>
	<line fill="#262424" x1="237.472" y1="-107.294" x2="266.843" y2="-101.964"/>
	
		<rect x="237.232" y="-105.181" transform="matrix(0.9839 0.1786 -0.1786 0.9839 -14.6299 -46.7059)" fill="#262424" width="29.851" height="1.105"/>
	<path fill="#262424" d="M236.183-112.093c2.244,0,4.063,1.817,4.063,4.063c0,2.243-1.818,4.062-4.063,4.062
		s-4.063-1.818-4.063-4.062C232.12-110.276,233.938-112.093,236.183-112.093"/>
	<path fill="#262424" d="M236.183-103.694c-2.393,0-4.338-1.945-4.338-4.337c0-2.393,1.945-4.339,4.338-4.339
		s4.338,1.946,4.338,4.339C240.521-105.639,238.575-103.694,236.183-103.694 M236.183-111.817c-2.087,0-3.786,1.697-3.786,3.786
		c0,2.087,1.699,3.784,3.786,3.784s3.785-1.697,3.785-3.784C239.968-110.12,238.27-111.817,236.183-111.817"/>
	<path fill="#262424" d="M248.339-94.409c1.631,0,2.954,1.321,2.954,2.953s-1.323,2.955-2.954,2.955
		c-1.633,0-2.955-1.323-2.955-2.955S246.706-94.409,248.339-94.409"/>
	<path fill="#262424" d="M248.339-88.225c-1.782,0-3.231-1.449-3.231-3.23s1.449-3.23,3.231-3.23c1.781,0,3.23,1.449,3.23,3.23
		S250.12-88.225,248.339-88.225 M248.339-94.133c-1.477,0-2.68,1.201-2.68,2.678s1.203,2.678,2.68,2.678s2.678-1.201,2.678-2.678
		S249.815-94.133,248.339-94.133"/>
	<path fill="#262424" d="M283.799-84.178c0,1.632-1.322,2.955-2.954,2.955c-1.631,0-2.955-1.323-2.955-2.955
		c0-1.631,1.324-2.953,2.955-2.953C282.477-87.131,283.799-85.809,283.799-84.178"/>
	<path fill="#262424" d="M280.845-80.947c-1.781,0-3.23-1.449-3.23-3.231c0-1.78,1.449-3.229,3.23-3.229s3.23,1.449,3.23,3.229
		C284.075-82.396,282.626-80.947,280.845-80.947 M280.845-86.855c-1.477,0-2.678,1.2-2.678,2.677c0,1.478,1.201,2.68,2.678,2.68
		s2.678-1.202,2.678-2.68C283.522-85.655,282.321-86.855,280.845-86.855"/>
	<path fill="#262424" d="M269.341-101.897c0,1.63-1.324,2.953-2.955,2.953c-1.632,0-2.954-1.323-2.954-2.953
		c0-1.634,1.322-2.955,2.954-2.955C268.017-104.852,269.341-103.531,269.341-101.897"/>
	<path fill="#262424" d="M266.386-98.668c-1.781,0-3.23-1.448-3.23-3.229c0-1.782,1.449-3.232,3.23-3.232s3.23,1.45,3.23,3.232
		C269.616-100.117,268.167-98.668,266.386-98.668 M266.386-104.577c-1.477,0-2.678,1.201-2.678,2.68
		c0,1.475,1.201,2.676,2.678,2.676s2.678-1.201,2.678-2.676C269.063-103.375,267.862-104.577,266.386-104.577"/>
	<path fill="#262424" d="M284.335-103.211c0,1.631-1.322,2.955-2.955,2.955c-1.632,0-2.953-1.324-2.953-2.955
		c0-1.633,1.321-2.953,2.953-2.953C283.013-106.165,284.335-104.844,284.335-103.211"/>
	<path fill="#262424" d="M281.38-99.981c-1.779,0-3.23-1.449-3.23-3.23c0-1.78,1.451-3.229,3.23-3.229
		c1.781,0,3.23,1.449,3.23,3.229C284.61-101.43,283.161-99.981,281.38-99.981 M281.38-105.888c-1.477,0-2.678,1.2-2.678,2.677
		s1.201,2.678,2.678,2.678s2.678-1.201,2.678-2.678S282.856-105.888,281.38-105.888"/>
	
		<rect x="273.101" y="-107.788" transform="matrix(0.0346 0.9994 -0.9994 0.0346 161.3248 -373.1058)" fill="#262424" width="1.382" height="9.483"/>
	
		<rect x="264.803" y="-99.138" transform="matrix(0.9876 0.1571 -0.1571 0.9876 -11.1681 -42.8392)" fill="#262424" width="1.38" height="14.098"/>
	
		<rect x="271.008" y="-89.503" transform="matrix(0.0735 0.9973 -0.9973 0.0735 168.6559 -348.1571)" fill="#262424" width="1.383" height="12.384"/>
	<line fill="#262424" x1="247.786" y1="-153.708" x2="247.786" y2="-94.034"/>
	<rect x="247.095" y="-153.708" fill="#262424" width="1.381" height="59.674"/>
	<line fill="#262424" x1="250.239" y1="-153.875" x2="255.521" y2="-130.129"/>
	
		<rect x="240.718" y="-142.694" transform="matrix(0.2171 0.9762 -0.9762 0.2171 59.369 -358.0269)" fill="#262424" width="24.324" height="1.382"/>
	<line fill="#262424" x1="246.496" y1="-156.655" x2="226.973" y2="-134.37"/>
	
		<rect x="236.044" y="-160.326" transform="matrix(0.7529 0.6582 -0.6582 0.7529 -37.2683 -191.7666)" fill="#262424" width="1.381" height="29.628"/>
	<path fill="#262424" d="M255.89-130.506c1.63,0,2.953,1.322,2.953,2.955c0,1.631-1.323,2.953-2.953,2.953
		c-1.633,0-2.955-1.322-2.955-2.953C252.935-129.184,254.257-130.506,255.89-130.506"/>
	<path fill="#262424" d="M255.89-124.321c-1.782,0-3.231-1.45-3.231-3.23c0-1.782,1.449-3.23,3.231-3.23
		c1.779,0,3.229,1.448,3.229,3.23C259.119-125.771,257.669-124.321,255.89-124.321 M255.89-130.23c-1.478,0-2.68,1.201-2.68,2.679
		c0,1.477,1.202,2.677,2.68,2.677c1.477,0,2.678-1.2,2.678-2.677C258.567-129.029,257.366-130.23,255.89-130.23"/>
	<path fill="#262424" d="M222.922-137.139c3.97,0,7.19,3.219,7.19,7.191c0,3.971-3.221,7.189-7.19,7.189
		c-3.972,0-7.19-3.219-7.19-7.189C215.731-133.92,218.95-137.139,222.922-137.139"/>
	<path fill="#262424" d="M222.922-122.483c-4.118,0-7.467-3.35-7.467-7.465c0-4.118,3.349-7.467,7.467-7.467
		c4.116,0,7.467,3.349,7.467,7.467C230.389-125.833,227.038-122.483,222.922-122.483 M222.922-136.863
		c-3.813,0-6.915,3.102-6.915,6.915c0,3.811,3.102,6.912,6.915,6.912c3.812,0,6.914-3.102,6.914-6.912
		C229.836-133.761,226.733-136.863,222.922-136.863"/>
	<path fill="#262424" d="M248.118-117.927c2.141,0,3.875,1.733,3.875,3.874s-1.734,3.875-3.875,3.875s-3.875-1.734-3.875-3.875
		S245.978-117.927,248.118-117.927"/>
	<path fill="#262424" d="M248.118-109.902c-2.289,0-4.152-1.862-4.152-4.151s1.863-4.15,4.152-4.15s4.151,1.861,4.151,4.15
		S250.407-109.902,248.118-109.902 M248.118-117.651c-1.984,0-3.6,1.613-3.6,3.598s1.615,3.599,3.6,3.599s3.6-1.614,3.6-3.599
		S250.103-117.651,248.118-117.651"/>
	<path fill="#262424" d="M268.544-83.243c0,2.484-2.012,4.496-4.496,4.496c-2.483,0-4.496-2.012-4.496-4.496
		c0-2.482,2.013-4.498,4.496-4.498C266.532-87.741,268.544-85.725,268.544-83.243"/>
	<path fill="#262424" d="M264.048-78.47c-2.631,0-4.771-2.141-4.771-4.772c0-2.633,2.141-4.773,4.771-4.773
		c2.632,0,4.773,2.141,4.773,4.773C268.821-80.611,266.68-78.47,264.048-78.47 M264.048-87.463c-2.326,0-4.22,1.894-4.22,4.221
		s1.894,4.221,4.22,4.221c2.327,0,4.221-1.894,4.221-4.221S266.375-87.463,264.048-87.463"/>
	<path fill="#262424" d="M248.213-163.65c2.853,0,5.165,2.313,5.165,5.165c0,2.852-2.313,5.162-5.165,5.162
		s-5.163-2.311-5.163-5.162C243.05-161.337,245.36-163.65,248.213-163.65"/>
	<path fill="#262424" d="M248.213-153.045c-3,0-5.44-2.44-5.44-5.439c0-3,2.44-5.441,5.44-5.441s5.441,2.441,5.441,5.441
		C253.654-155.486,251.213-153.045,248.213-153.045 M248.213-163.374c-2.694,0-4.888,2.193-4.888,4.889s2.193,4.887,4.888,4.887
		c2.696,0,4.89-2.191,4.89-4.887S250.909-163.374,248.213-163.374"/>
	<path fill="#262424" d="M247.589-107.437c1.25,0,2.264,1.013,2.264,2.263s-1.014,2.264-2.264,2.264s-2.264-1.014-2.264-2.264
		S246.339-107.437,247.589-107.437"/>
	<path fill="#262424" d="M247.589-102.634c-1.4,0-2.54-1.14-2.54-2.54s1.14-2.539,2.54-2.539s2.54,1.139,2.54,2.539
		S248.989-102.634,247.589-102.634 M247.589-107.161c-1.096,0-1.987,0.891-1.987,1.986c0,1.097,0.892,1.988,1.987,1.988
		s1.987-0.892,1.987-1.988C249.576-106.27,248.685-107.161,247.589-107.161"/>
	<path fill="#262424" d="M256.344-106.231c1.288,0,2.333,1.045,2.333,2.333s-1.045,2.332-2.333,2.332s-2.332-1.044-2.332-2.332
		S255.056-106.231,256.344-106.231"/>
	<path fill="#262424" d="M256.344-101.29c-1.438,0-2.608-1.17-2.608-2.608s1.17-2.608,2.608-2.608c1.439,0,2.609,1.17,2.609,2.608
		S257.783-101.29,256.344-101.29 M256.344-105.954c-1.134,0-2.056,0.921-2.056,2.056c0,1.134,0.922,2.056,2.056,2.056
		s2.057-0.922,2.057-2.056C258.4-105.033,257.478-105.954,256.344-105.954"/>
	<rect x="186.073" y="-51.684" fill="#262424" width="148.08" height="0.553"/>
</g>
<g>
	<line fill="#5AA192" x1="86.709" y1="55.151" x2="68.89" y2="88.046"/>
	
		<rect x="77.111" y="52.893" transform="matrix(0.8793 0.4762 -0.4762 0.8793 43.4844 -28.4093)" fill="#5AA192" width="1.376" height="37.411"/>
	<line fill="#5AA192" x1="57.953" y1="71.276" x2="85.977" y2="54.603"/>
	
		<rect x="71.278" y="46.634" transform="matrix(0.5109 0.8596 -0.8596 0.5109 89.2983 -31.0805)" fill="#5AA192" width="1.372" height="32.61"/>
	<path d="M18.356,121.704c-1.381,1.381-3.216,2.072-5.031,2.072c-4.655,0-7.082-3.256-7.103-6.985
		c-0.039-3.688,2.368-7.142,7.103-7.142c1.815,0,3.65,0.69,5.031,2.071l-0.73,0.632c-1.184-1.184-2.741-1.756-4.301-1.756
		c-4.024,0-6.096,2.84-6.076,6.156c0.041,3.234,2.091,6.036,6.076,6.036c1.56,0,3.137-0.591,4.322-1.757L18.356,121.704z"/>
	<rect x="20.073" y="109.808" width="0.968" height="13.811"/>
	<path d="M31.201,123.618v-1.756c-0.749,1.342-2.11,1.894-3.473,1.914c-2.604,0-4.397-1.599-4.397-4.302v-5.623h0.966v5.604
		c0,2.209,1.36,3.394,3.472,3.374c2.013-0.02,3.413-1.539,3.413-3.551v-5.427h0.967v9.767H31.201z"/>
	<path d="M35.247,109.808v6.195c0.789-1.579,2.367-2.289,4.044-2.289c2.722,0,4.893,1.814,4.893,5.031
		c0,3.235-2.15,5.031-4.873,5.031c-1.657,0-3.255-0.829-4.063-2.309v2.15H34.3v-13.811H35.247z M35.267,118.726
		c0,2.426,1.695,4.104,3.985,4.104c2.19,0,3.985-1.382,3.985-4.084c0-2.742-1.795-4.104-3.985-4.104
		C37.003,114.641,35.267,116.298,35.267,118.726"/>
	<path d="M45.606,118.745c0-2.92,2.209-5.031,4.95-5.031c2.743,0,5.19,1.677,4.815,5.485h-8.78c0.197,2.287,1.953,3.61,3.965,3.61
		c1.283,0,2.783-0.514,3.513-1.48l0.691,0.553c-0.947,1.242-2.645,1.874-4.204,1.874C47.815,123.756,45.606,121.843,45.606,118.745
		 M54.504,118.35c-0.021-2.406-1.6-3.748-3.947-3.748c-2.012,0-3.749,1.36-3.965,3.748H54.504z"/>
	<path d="M64.173,115.647c-0.989-0.868-1.955-1.025-3.039-1.025c-1.521-0.021-2.979,0.551-2.939,1.795
		c0.039,1.302,1.737,1.559,2.959,1.775c1.736,0.295,4.124,0.592,4.024,2.861c-0.06,2.15-2.288,2.723-4.005,2.723
		s-3.413-0.651-4.262-1.953l0.71-0.633c0.81,1.164,2.269,1.658,3.569,1.658c1.187,0,2.982-0.316,3.04-1.854
		c0.04-1.401-1.577-1.677-3.175-1.935c-1.895-0.314-3.769-0.67-3.79-2.623c-0.02-1.914,1.896-2.742,3.868-2.723
		c1.42,0,2.663,0.395,3.63,1.303L64.173,115.647z"/>
	<path d="M77.278,115.151v8.467h-0.579V122.3c-0.497,0.907-1.476,1.414-2.492,1.414c-1.669,0-2.986-1.1-2.986-3.084
		c0-1.971,1.329-3.084,2.999-3.084c1.028,0,1.995,0.436,2.479,1.402v-3.797H77.278z M71.799,120.63c0,1.658,1.102,2.504,2.443,2.504
		c1.405,0,2.443-1.028,2.443-2.516c0-1.488-1.063-2.504-2.443-2.504C72.9,118.114,71.799,118.948,71.799,120.63"/>
	<path d="M78.54,120.63c0-1.79,1.354-3.084,3.036-3.084s3.181,1.027,2.95,3.362h-5.382c0.12,1.403,1.196,2.214,2.432,2.214
		c0.784,0,1.705-0.314,2.152-0.907l0.424,0.339c-0.581,0.762-1.621,1.148-2.576,1.148C79.895,123.702,78.54,122.53,78.54,120.63
		 M83.995,120.389c-0.012-1.477-0.98-2.299-2.419-2.299c-1.235,0-2.299,0.835-2.432,2.299H83.995z"/>
	<path d="M102.856,121.704c-1.382,1.381-3.217,2.072-5.031,2.072c-4.657,0-7.083-3.256-7.104-6.985
		c-0.038-3.688,2.368-7.142,7.104-7.142c1.814,0,3.649,0.69,5.031,2.071l-0.73,0.632c-1.184-1.184-2.743-1.756-4.301-1.756
		c-4.025,0-6.097,2.84-6.077,6.156c0.04,3.234,2.091,6.036,6.077,6.036c1.558,0,3.138-0.591,4.32-1.757L102.856,121.704z"/>
	<path d="M105.658,110.696c0,1.024-1.559,1.024-1.559,0C104.1,109.669,105.658,109.669,105.658,110.696 M104.375,123.618h0.968
		v-9.785h-0.968V123.618z"/>
	<path d="M107.157,118.745c0-2.92,2.211-5.031,4.953-5.031s5.188,1.677,4.813,5.485h-8.78c0.198,2.287,1.955,3.61,3.967,3.61
		c1.282,0,2.781-0.514,3.512-1.48l0.689,0.553c-0.946,1.242-2.643,1.874-4.201,1.874
		C109.368,123.756,107.157,121.843,107.157,118.745 M116.056,118.35c-0.02-2.406-1.597-3.748-3.945-3.748
		c-2.012,0-3.748,1.36-3.967,3.748H116.056z"/>
	<path d="M119.982,113.871v1.736c0.75-1.341,2.111-1.894,3.473-1.913c2.604,0,4.399,1.598,4.399,4.301v5.623h-0.966v-5.604
		c0-2.209-1.361-3.393-3.474-3.374c-2.012,0.021-3.412,1.539-3.412,3.552v5.426h-0.968v-9.747H119.982z"/>
	<path d="M137.977,122.257c-0.986,0.986-2.269,1.459-3.551,1.459c-2.742,0-5.011-1.893-5.011-4.971s2.189-4.973,5.011-4.973
		c1.282,0,2.564,0.494,3.551,1.461l-0.631,0.611c-0.789-0.789-1.875-1.164-2.92-1.164c-2.209,0-4.063,1.439-4.063,4.064
		c0,2.623,1.854,4.064,4.063,4.064c1.045,0,2.111-0.414,2.899-1.204L137.977,122.257z"/>
	<path d="M140.838,110.696c0,1.024-1.559,1.024-1.559,0C139.279,109.669,140.838,109.669,140.838,110.696 M139.557,123.618h0.966
		v-9.785h-0.966V123.618z"/>
	<path d="M152.262,113.871v9.747h-0.966v-2.072c-0.947,1.52-2.408,2.23-3.985,2.23c-2.723,0-4.953-2.053-4.953-5.031
		s2.23-4.992,4.953-4.992c1.577,0,3.175,0.73,3.985,2.25v-2.132H152.262z M143.325,118.745c0,2.445,1.774,4.084,3.985,4.084
		c5.424,0,5.424-8.148,0-8.148C145.1,114.681,143.325,116.298,143.325,118.745"/>
	<polygon points="66.401,133.919 62.276,140.229 62,140.229 57.843,133.919 57.843,143.493 57.012,143.493 57.012,132.718 
		57.998,132.718 62.122,138.999 66.201,132.718 67.219,132.718 67.219,143.493 66.401,143.493 	"/>
	<path d="M72.574,143.603c-2.14,0-3.864-1.494-3.864-3.91c0-2.279,1.725-3.926,3.864-3.926c2.141,0,4.048,1.309,3.756,4.279h-6.85
		c0.152,1.785,1.523,2.816,3.094,2.816c1,0,2.17-0.399,2.739-1.154l0.539,0.432C75.113,143.109,73.789,143.603,72.574,143.603
		 M69.48,139.384h6.172c-0.015-1.878-1.246-2.924-3.078-2.924C71.004,136.46,69.648,137.521,69.48,139.384 M72.791,134.612
		l1.415-1.895v-0.014h-1.001l-1.155,1.847v0.062H72.791z"/>
	<polygon points="80.502,138.999 82.765,135.89 83.671,135.89 83.671,135.921 80.948,139.553 83.889,143.464 83.889,143.493 
		82.995,143.493 80.502,140.092 78.007,143.493 77.114,143.493 77.114,143.464 80.056,139.553 77.331,135.921 77.331,135.89 
		78.238,135.89 	"/>
	<path d="M85.997,133.411c0,0.801-1.217,0.801-1.217,0C84.78,132.611,85.997,132.611,85.997,133.411 M84.996,143.493h0.754v-7.634
		h-0.754V143.493z"/>
	<path d="M93.831,142.431c-0.77,0.771-1.77,1.141-2.771,1.141c-2.14,0-3.91-1.479-3.91-3.879s1.709-3.88,3.91-3.88
		c1.001,0,2.001,0.386,2.771,1.14l-0.493,0.477c-0.615-0.615-1.461-0.908-2.277-0.908c-1.725,0-3.172,1.124-3.172,3.172
		c0,2.047,1.447,3.17,3.172,3.17c0.816,0,1.646-0.324,2.263-0.938L93.831,142.431z"/>
	<path d="M94.862,139.707c0-2.415,1.725-3.956,3.862-3.956c2.142,0,3.865,1.541,3.865,3.956c0,2.417-1.724,3.894-3.865,3.894
		C96.587,143.601,94.862,142.124,94.862,139.707 M101.852,139.707c0-1.97-1.401-3.247-3.127-3.247c-1.722,0-3.124,1.277-3.124,3.247
		c0,1.971,1.402,3.155,3.124,3.155C100.45,142.862,101.852,141.678,101.852,139.707"/>
	<line fill="#5AA192" x1="71.227" y1="22.627" x2="86.894" y2="35.546"/>
	
		<rect x="68.906" y="28.399" transform="matrix(0.7715 0.6362 -0.6362 0.7715 36.5678 -43.652)" fill="#5AA192" width="20.306" height="1.374"/>
	<path fill="#DB8254" d="M105.751,55.796c0,2.23-1.81,4.041-4.042,4.041c-2.23,0-4.041-1.811-4.041-4.041
		c0-2.233,1.811-4.041,4.041-4.041C103.941,51.755,105.751,53.563,105.751,55.796"/>
	<path fill="#DB8254" d="M101.709,60.111c-2.38,0-4.316-1.937-4.316-4.315c0-2.38,1.937-4.316,4.316-4.316
		c2.381,0,4.316,1.937,4.316,4.316C106.025,58.175,104.09,60.111,101.709,60.111 M101.709,52.029c-2.075,0-3.766,1.689-3.766,3.767
		c0,2.076,1.69,3.766,3.766,3.766c2.076,0,3.767-1.689,3.767-3.766C105.476,53.719,103.785,52.029,101.709,52.029"/>
	<path fill="#DB8254" d="M89.947,54.053c0,1.624-1.315,2.94-2.938,2.94c-1.625,0-2.939-1.316-2.939-2.94
		c0-1.623,1.314-2.938,2.939-2.938C88.632,51.114,89.947,52.43,89.947,54.053"/>
	<path fill="#DB8254" d="M87.009,57.267c-1.773,0-3.214-1.442-3.214-3.214c0-1.772,1.44-3.214,3.214-3.214
		c1.772,0,3.215,1.441,3.215,3.214C90.224,55.824,88.781,57.267,87.009,57.267 M87.009,51.39c-1.469,0-2.665,1.195-2.665,2.663
		c0,1.469,1.196,2.665,2.665,2.665c1.47,0,2.664-1.196,2.664-2.665C89.673,52.585,88.479,51.39,87.009,51.39"/>
	<path fill="#DB8254" d="M89.73,35.548c0,1.623-1.316,2.939-2.941,2.939c-1.622,0-2.938-1.316-2.938-2.939
		c0-1.624,1.316-2.939,2.938-2.939C88.414,32.608,89.73,33.924,89.73,35.548"/>
	<path fill="#DB8254" d="M86.789,38.761c-1.771,0-3.213-1.441-3.213-3.213c0-1.772,1.442-3.214,3.213-3.214
		c1.773,0,3.216,1.441,3.216,3.214C90.005,37.319,88.563,38.761,86.789,38.761 M86.789,32.884c-1.468,0-2.662,1.195-2.662,2.664
		s1.194,2.664,2.662,2.664c1.47,0,2.666-1.195,2.666-2.664S88.259,32.884,86.789,32.884"/>
	<path fill="#DB8254" d="M105.016,33.509c0,2.332-1.892,4.223-4.223,4.223c-2.332,0-4.222-1.891-4.222-4.223
		c0-2.333,1.89-4.223,4.222-4.223C103.124,29.286,105.016,31.176,105.016,33.509"/>
	<path fill="#DB8254" d="M100.793,38.006c-2.479,0-4.497-2.018-4.497-4.497s2.019-4.496,4.497-4.496s4.497,2.017,4.497,4.496
		S103.271,38.006,100.793,38.006 M100.793,29.562c-2.176,0-3.946,1.771-3.946,3.947s1.771,3.947,3.946,3.947
		c2.177,0,3.947-1.771,3.947-3.947S102.97,29.562,100.793,29.562"/>
	
		<rect x="93.179" y="30.048" transform="matrix(0.037 0.9993 -0.9993 0.037 124.7783 -60.6689)" fill="#DB8254" width="1.374" height="8.713"/>
	
		<rect x="80.584" y="44.114" transform="matrix(0.0172 0.9999 -0.9999 0.0172 130.1941 -42.8573)" fill="#DB8254" width="12.629" height="1.374"/>
	
		<rect x="89.752" y="54.592" transform="matrix(0.9926 0.1218 -0.1218 0.9926 7.4309 -11.0354)" fill="#DB8254" width="8.501" height="1.374"/>
	<line fill="#5AA192" x1="57.586" y1="72.741" x2="86.808" y2="78.045"/>
	
		<rect x="57.347" y="74.845" transform="matrix(0.9839 0.1785 -0.1785 0.9839 14.6211 -11.6789)" fill="#5AA192" width="29.7" height="1.098"/>
	<path fill="#5AA192" d="M56.304,67.968c2.231,0,4.041,1.809,4.041,4.042c0,2.231-1.81,4.04-4.041,4.04
		c-2.232,0-4.042-1.809-4.042-4.04C52.262,69.776,54.071,67.968,56.304,67.968"/>
	<path fill="#5AA192" d="M56.304,76.325c-2.381,0-4.317-1.937-4.317-4.315c0-2.382,1.937-4.317,4.317-4.317
		c2.38,0,4.316,1.936,4.316,4.317C60.62,74.389,58.684,76.325,56.304,76.325 M56.304,68.243c-2.077,0-3.767,1.689-3.767,3.767
		c0,2.075,1.689,3.766,3.767,3.766c2.075,0,3.766-1.69,3.766-3.766C60.069,69.933,58.379,68.243,56.304,68.243"/>
	<path fill="#5AA192" d="M68.397,85.562c1.623,0,2.94,1.316,2.94,2.939s-1.317,2.939-2.94,2.939s-2.939-1.316-2.939-2.939
		S66.774,85.562,68.397,85.562"/>
	<path fill="#5AA192" d="M68.397,91.716c-1.772,0-3.215-1.443-3.215-3.215c0-1.772,1.442-3.215,3.215-3.215s3.214,1.442,3.214,3.215
		C71.611,90.272,70.17,91.716,68.397,91.716 M68.397,85.837c-1.47,0-2.664,1.195-2.664,2.664c0,1.47,1.194,2.664,2.664,2.664
		s2.665-1.194,2.665-2.664C71.063,87.032,69.867,85.837,68.397,85.837"/>
	<path fill="#DB8254" d="M103.679,95.741c0,1.624-1.315,2.94-2.938,2.94c-1.624,0-2.939-1.316-2.939-2.94
		c0-1.623,1.315-2.939,2.939-2.939C102.363,92.802,103.679,94.118,103.679,95.741"/>
	<path fill="#DB8254" d="M100.74,98.956c-1.773,0-3.216-1.441-3.216-3.215c0-1.771,1.442-3.213,3.216-3.213
		c1.772,0,3.213,1.441,3.213,3.213C103.953,97.515,102.513,98.956,100.74,98.956 M100.74,93.077c-1.471,0-2.666,1.195-2.666,2.664
		c0,1.471,1.195,2.665,2.666,2.665c1.468,0,2.664-1.194,2.664-2.665C103.404,94.272,102.208,93.077,100.74,93.077"/>
	<path fill="#DB8254" d="M89.293,78.111c0,1.622-1.316,2.938-2.94,2.938c-1.623,0-2.938-1.316-2.938-2.938
		c0-1.624,1.315-2.939,2.938-2.939C87.977,75.172,89.293,76.487,89.293,78.111"/>
	<path fill="#DB8254" d="M86.353,81.324c-1.771,0-3.213-1.441-3.213-3.212c0-1.773,1.441-3.215,3.213-3.215
		c1.772,0,3.215,1.441,3.215,3.215C89.567,79.883,88.125,81.324,86.353,81.324 M86.353,75.446c-1.469,0-2.663,1.195-2.663,2.666
		c0,1.467,1.194,2.662,2.663,2.662c1.471,0,2.666-1.195,2.666-2.662C89.019,76.642,87.823,75.446,86.353,75.446"/>
	<path fill="#DB8254" d="M104.21,76.805c0,1.623-1.314,2.939-2.938,2.939s-2.938-1.316-2.938-2.939c0-1.624,1.315-2.938,2.938-2.938
		S104.21,75.181,104.21,76.805"/>
	<path fill="#DB8254" d="M101.272,80.019c-1.772,0-3.213-1.443-3.213-3.214c0-1.772,1.44-3.214,3.213-3.214s3.214,1.441,3.214,3.214
		C104.486,78.575,103.045,80.019,101.272,80.019 M101.272,74.141c-1.469,0-2.664,1.195-2.664,2.664c0,1.47,1.195,2.664,2.664,2.664
		s2.664-1.194,2.664-2.664C103.937,75.336,102.741,74.141,101.272,74.141"/>
	
		<rect x="93.035" y="72.25" transform="matrix(0.0341 0.9994 -0.9994 0.0341 167.4469 -19.3254)" fill="#DB8254" width="1.374" height="9.435"/>
	
		<rect x="84.779" y="80.858" transform="matrix(0.9875 0.1578 -0.1578 0.9875 14.9392 -12.3874)" fill="#DB8254" width="1.374" height="14.025"/>
	
		<rect x="90.954" y="90.444" transform="matrix(0.0725 0.9974 -0.9974 0.0725 181.3455 -1.8001)" fill="#DB8254" width="1.374" height="12.32"/>
	<line fill="#5AA192" x1="67.848" y1="26.563" x2="67.848" y2="85.936"/>
	<rect x="67.16" y="26.563" fill="#5AA192" width="1.376" height="59.372"/>
	<line fill="#5AA192" x1="70.289" y1="26.397" x2="75.543" y2="50.022"/>
	
		<rect x="60.816" y="37.521" transform="matrix(0.2171 0.9761 -0.9761 0.2171 94.3819 -41.2639)" fill="#5AA192" width="24.201" height="1.377"/>
	<line fill="#5BA895" x1="66.565" y1="23.632" x2="47.141" y2="45.804"/>
	
		<rect x="56.165" y="19.979" transform="matrix(0.7524 0.6587 -0.6587 0.7524 36.9412 -28.8517)" fill="#5AA192" width="1.374" height="29.478"/>
	<path fill="#5AA192" d="M75.91,49.647c1.622,0,2.938,1.316,2.938,2.94c0,1.622-1.316,2.938-2.938,2.938s-2.939-1.316-2.939-2.938
		C72.971,50.964,74.288,49.647,75.91,49.647"/>
	<path fill="#5AA192" d="M75.91,55.801c-1.772,0-3.215-1.442-3.215-3.213c0-1.772,1.442-3.215,3.215-3.215s3.214,1.442,3.214,3.215
		C79.124,54.358,77.683,55.801,75.91,55.801 M75.91,49.923c-1.47,0-2.664,1.194-2.664,2.665c0,1.468,1.194,2.663,2.664,2.663
		s2.664-1.195,2.664-2.663C78.574,51.117,77.38,49.923,75.91,49.923"/>
	<path fill="#5BA895" d="M43.109,43.048c3.95,0,7.155,3.203,7.155,7.154s-3.205,7.153-7.155,7.153c-3.951,0-7.153-3.202-7.153-7.153
		S39.158,43.048,43.109,43.048"/>
	<path fill="#5AA192" d="M43.109,57.63c-4.097,0-7.428-3.332-7.428-7.428s3.331-7.429,7.428-7.429s7.429,3.333,7.429,7.429
		S47.206,57.63,43.109,57.63 M43.109,43.323c-3.794,0-6.88,3.086-6.88,6.879s3.086,6.879,6.88,6.879
		c3.792,0,6.879-3.086,6.879-6.879S46.901,43.323,43.109,43.323"/>
	<path fill="#5AA192" d="M68.18,62.163c2.129,0,3.854,1.725,3.854,3.854s-1.725,3.854-3.854,3.854c-2.132,0-3.857-1.725-3.857-3.854
		S66.048,62.163,68.18,62.163"/>
	<path fill="#5AA192" d="M68.18,70.147c-2.279,0-4.133-1.853-4.133-4.13s1.854-4.13,4.133-4.13c2.276,0,4.13,1.853,4.13,4.13
		S70.456,70.147,68.18,70.147 M68.18,62.438c-1.976,0-3.581,1.606-3.581,3.58s1.605,3.581,3.581,3.581
		c1.974,0,3.58-1.607,3.58-3.581S70.153,62.438,68.18,62.438"/>
	<path fill="#DB8254" d="M88.502,96.672c0,2.472-2.003,4.474-4.474,4.474s-4.474-2.002-4.474-4.474c0-2.47,2.003-4.474,4.474-4.474
		S88.502,94.202,88.502,96.672"/>
	<path fill="#DB8254" d="M84.028,101.421c-2.618,0-4.749-2.13-4.749-4.749c0-2.618,2.131-4.749,4.749-4.749s4.748,2.131,4.748,4.749
		C88.776,99.291,86.646,101.421,84.028,101.421 M84.028,92.472c-2.315,0-4.199,1.885-4.199,4.2s1.884,4.2,4.199,4.2
		c2.313,0,4.199-1.885,4.199-4.2S86.342,92.472,84.028,92.472"/>
	<path fill="#5AA192" d="M68.273,16.671c2.837,0,5.139,2.301,5.139,5.139s-2.302,5.138-5.139,5.138c-2.839,0-5.139-2.3-5.139-5.138
		S65.435,16.671,68.273,16.671"/>
	<path fill="#5AA192" d="M68.273,27.222c-2.986,0-5.412-2.428-5.412-5.412s2.426-5.412,5.412-5.412c2.984,0,5.414,2.428,5.414,5.412
		S71.258,27.222,68.273,27.222 M68.273,16.946c-2.682,0-4.863,2.182-4.863,4.863s2.182,4.863,4.863,4.863
		c2.68,0,4.862-2.182,4.862-4.863S70.953,16.946,68.273,16.946"/>
	<path fill="#5AA192" d="M67.652,72.6c1.243,0,2.251,1.009,2.251,2.253c0,1.243-1.008,2.251-2.251,2.251
		c-1.244,0-2.253-1.008-2.253-2.251C65.399,73.608,66.408,72.6,67.652,72.6"/>
	<path fill="#5AA192" d="M67.652,77.379c-1.394,0-2.527-1.134-2.527-2.526c0-1.395,1.134-2.527,2.527-2.527
		c1.395,0,2.526,1.133,2.526,2.527C70.179,76.245,69.047,77.379,67.652,77.379 M67.652,72.875c-1.09,0-1.977,0.887-1.977,1.978
		c0,1.09,0.887,1.977,1.977,1.977s1.977-0.887,1.977-1.977C69.629,73.762,68.742,72.875,67.652,72.875"/>
	<path fill="#5AA192" d="M76.363,73.801c1.281,0,2.32,1.038,2.32,2.321c0,1.281-1.039,2.319-2.32,2.319
		c-1.282,0-2.32-1.038-2.32-2.319C74.043,74.839,75.081,73.801,76.363,73.801"/>
	<path fill="#5AA192" d="M76.363,78.716c-1.432,0-2.597-1.164-2.597-2.594c0-1.432,1.165-2.597,2.597-2.597s2.595,1.165,2.595,2.597
		C78.958,77.552,77.795,78.716,76.363,78.716 M76.363,74.075c-1.128,0-2.046,0.918-2.046,2.047c0,1.127,0.918,2.045,2.046,2.045
		c1.127,0,2.046-0.918,2.046-2.045C78.409,74.993,77.49,74.075,76.363,74.075"/>
	<rect x="6.448" y="128.071" width="147.329" height="0.55"/>
</g>
<g>
</g>
<g>
</g>
<g>
</g>
<g>
</g>
<g>
</g>
<g>
</g>
<g>
</g>
<g>
</g>
<g>
</g>
<g>
</g>
<g>
</g>
<g>
</g>
<g>
</g>
<g>
</g>
<g>
</g>
</svg>
